<?xml version="1.0" encoding="utf-8"?>
<!-- Generator: Adobe Illustrator 16.0.0, SVG Export Plug-In . SVG Version: 6.00 Build 0)  -->
<!DOCTYPE svg PUBLIC "-//W3C//DTD SVG 1.1//EN" "http://www.w3.org/Graphics/SVG/1.1/DTD/svg11.dtd">
<svg version="1.1" id="Layer_1" xmlns="http://www.w3.org/2000/svg" xmlns:xlink="http://www.w3.org/1999/xlink" x="0px" y="0px"
	 width="111.445px" height="34.857px" viewBox="0 0 111.445 34.857" enable-background="new 0 0 111.445 34.857"
	 xml:space="preserve">
<g>
	<polygon fill="#332F46" points="0,13.098 5.623,22.84 0,32.579 	"/>
	<polygon fill="#332F46" points="15.688,34.858 5.623,17.434 15.688,0 	"/>
	<path fill="#332F46" d="M47.992,12.766c-4.699,0-7.539,3.43-7.539,7.481c0,4.049,2.84,7.509,7.539,7.509
		c4.732,0,7.57-3.46,7.57-7.509C55.562,16.195,52.725,12.766,47.992,12.766z M47.992,24.415c-2.334,0-3.635-1.924-3.635-4.168
		c0-2.218,1.301-4.14,3.635-4.14c2.367,0,3.666,1.922,3.666,4.14C51.658,22.491,50.359,24.415,47.992,24.415z"/>
	<path fill="#332F46" d="M64.992,12.766c-4.701,0-7.539,3.43-7.539,7.481c0,4.049,2.838,7.509,7.539,7.509
		c4.729,0,7.568-3.46,7.568-7.509C72.561,16.195,69.721,12.766,64.992,12.766z M64.992,24.415c-2.336,0-3.637-1.924-3.637-4.168
		c0-2.218,1.301-4.14,3.637-4.14c2.363,0,3.664,1.922,3.664,4.14C68.656,22.491,67.355,24.415,64.992,24.415z"/>
	<path fill="#332F46" d="M83.076,12.766c-1.744,0-3.311,0.771-4.406,2.158v-1.803h-3.754v17.54l3.754,2.17v-7.265
		c1.183,1.479,2.722,2.188,4.406,2.188c3.666,0,6.326-2.749,6.326-7.509C89.402,15.484,86.742,12.766,83.076,12.766z M81.893,24.415
		c-1.211,0-2.603-0.738-3.224-1.654v-5.028c0.652-0.944,2.013-1.625,3.224-1.625c2.16,0,3.637,1.685,3.637,4.14
		C85.529,22.729,84.053,24.415,81.893,24.415z"/>
	<path fill="#332F46" d="M33.545,12.766c-2.334,0-4.078,1.125-4.994,2.188V7.682h-0.235l-3.549,2.047V27.4h3.784v-9.636
		c0.621-0.828,1.773-1.656,3.253-1.656c1.596,0,2.63,0.623,2.63,2.601V27.4h3.757V17.26C38.189,14.48,36.68,12.766,33.545,12.766z"
		/>
	<polygon fill="#332F46" points="91.969,27.4 95.725,27.4 95.725,7.791 91.969,9.957 	"/>
	<path fill="#332F46" d="M105.178,12.766c-2.214,0-4.429,0.662-6.162,2.182l1.506,2.607c1.164-1.033,2.541-1.595,4.006-1.595
		c1.893,0,3.133,0.943,3.133,2.394v1.804c-0.945-1.123-2.6-1.744-4.522-1.744c-2.275,0-4.938,1.241-4.938,4.61
		c0,3.193,2.662,4.731,4.938,4.731c1.862,0,3.549-0.683,4.522-1.862V27.4h3.785v-9.224
		C111.445,14.068,108.459,12.766,105.178,12.766z M107.66,23.971c-0.619,0.828-1.803,1.242-3.014,1.242
		c-1.479,0-2.691-0.771-2.691-2.129c0-1.361,1.213-2.158,2.691-2.158c1.211,0,2.395,0.443,3.014,1.271V23.971z"/>
</g>
</svg>
